<svg xmlns="http://www.w3.org/2000/svg" viewBox="0 0 32 32">
  <defs>
    <linearGradient id="headerLogoGrad" x1="0%" y1="0%" x2="100%" y2="100%">
      <stop offset="0%" style="stop-color:#ffffff;stop-opacity:1" />
      <stop offset="50%" style="stop-color:#f0b870;stop-opacity:1" />
      <stop offset="100%" style="stop-color:#e8a758;stop-opacity:1" />
    </linearGradient>
    <filter id="logoShadow" x="-50%" y="-50%" width="200%" height="200%">
      <feDropShadow dx="0" dy="2" stdDeviation="3" flood-color="#e8a758" flood-opacity="0.3"/>
    </filter>
  </defs>
  <!-- Infinity symbol path refined for 32x32 viewbox -->
  <path 
    d="M22 10c-2.8 0-5.1 2.2-6 5-.9-2.8-3.2-5-6-5-3.3 0-6 2.7-6 6s2.7 6 6 6c2.8 0 5.1-2.2 6-5 .9 2.8 3.2 5 6 5 3.3 0 6-2.7 6-6s-2.7-6-6-6zm-12 9c-1.7 0-3-1.3-3-3s1.3-3 3-3 3 1.3 3 3-1.3 3-3 3zm12 0c-1.7 0-3-1.3-3-3s1.3-3 3-3 3 1.3 3 3-1.3 3-3 3z"
    fill="url(#headerLogoGrad)"
    filter="url(#logoShadow)"
  />
</svg>
